ffmpeg started on 2016-12-09 at 19:58:01
Report written to "Output/x264/results/ffmpeg/sintelplacebo9000k.log"
Command line:
Tools/ffmpeg/ffmpeg -benchmark -y -i Input/y4m/sintel.y4m -c:v libx264 -preset placebo -b:v 9000k -an Output/x264/encoded/sintelplacebo9000k.mkv
ffmpeg version N-82227-gdb23fde Copyright (c) 2000-2016 the FFmpeg developers
  built with gcc 5.4.0 (Ubuntu 5.4.0-6ubuntu1~16.04.2) 20160609
  configuration: --prefix=/home/jaroslav/ffmpeg_build --pkg-config-flags=--static --extra-cflags=-I/home/jaroslav/ffmpeg_build/include --extra-ldflags=-L/home/jaroslav/ffmpeg_build/lib --bindir=/home/jaroslav/bin --enable-gpl --enable-libass --enable-libfdk-aac --enable-libfreetype --enable-libmp3lame --enable-libopus --enable-libtheora --enable-libvorbis --enable-libvpx --enable-libx264 --enable-libx265 --enable-nvenc --enable-libmfx --enable-libxvid --enable-libgsm --enable-libopencore-amrnb --enable-version3 --enable-nonfree
  libavutil      55. 35.100 / 55. 35.100
  libavcodec     57. 66.101 / 57. 66.101
  libavformat    57. 57.100 / 57. 57.100
  libavdevice    57.  2.100 / 57.  2.100
  libavfilter     6. 66.100 /  6. 66.100
  libswscale      4.  3.100 /  4.  3.100
  libswresample   2.  4.100 /  2.  4.100
  libpostproc    54.  2.100 / 54.  2.100
Input #0, yuv4mpegpipe, from 'Input/y4m/sintel.y4m':
  Duration: 00:00:20.83, start: 0.000000, bitrate: 2057307 kb/s
    Stream #0:0: Video: rawvideo (I420 / 0x30323449), yuv420p(progressive), 4096x1744, SAR 1:1 DAR 256:109, 24 fps, 24 tbr, 24 tbn, 24 tbc
[libx264 @ 0x39cb1c0] using SAR=1/1
[libx264 @ 0x39cb1c0] DPB size (16 frames, 446464 mbs) > level limit (6 frames, 184320 mbs)
[libx264 @ 0x39cb1c0] using cpu capabilities: MMX2 SSE2Fast SSSE3 SSE4.2 AVX FMA3 AVX2 LZCNT BMI2
[libx264 @ 0x39cb1c0] profile High, level 5.2
[libx264 @ 0x39cb1c0] 264 - core 148 - H.264/MPEG-4 AVC codec - Copyleft 2003-2016 - http://www.videolan.org/x264.html - options: cabac=1 ref=16 deblock=1:0:0 analyse=0x3:0x133 me=tesa subme=11 psy=1 psy_rd=1.00:0.00 mixed_ref=1 me_range=24 chroma_me=1 trellis=2 8x8dct=1 cqm=0 deadzone=21,11 fast_pskip=0 chroma_qp_offset=-2 threads=6 lookahead_threads=1 sliced_threads=0 nr=0 decimate=1 interlaced=0 bluray_compat=0 constrained_intra=0 bframes=16 b_pyramid=2 b_adapt=2 b_bias=0 direct=3 weightb=1 open_gop=0 weightp=2 keyint=250 keyint_min=24 scenecut=40 intra_refresh=0 rc_lookahead=60 rc=abr mbtree=1 bitrate=9000 ratetol=1.0 qcomp=0.60 qpmin=0 qpmax=69 qpstep=4 ip_ratio=1.40 aq=1:1.00
Output #0, matroska, to 'Output/x264/encoded/sintelplacebo9000k.mkv':
  Metadata:
    encoder         : Lavf57.57.100
    Stream #0:0: Video: h264 (libx264) (H264 / 0x34363248), yuv420p, 4096x1744 [SAR 1:1 DAR 256:109], q=-1--1, 9000 kb/s, 24 fps, 1k tbn, 24 tbc
    Metadata:
      encoder         : Lavc57.66.101 libx264
    Side data:
      cpb: bitrate max/min/avg: 0/0/9000000 buffer size: 0 vbv_delay: -1
Stream mapping:
  Stream #0:0 -> #0:0 (rawvideo (native) -> h264 (libx264))
Press [q] to stop, [?] for help
frame=   10 fps=0.0 q=0.0 size=       0kB time=00:00:00.00 bitrate=N/A speed=   0x    frame=   18 fps= 17 q=0.0 size=       0kB time=00:00:00.00 bitrate=N/A speed=   0x    frame=   26 fps= 16 q=0.0 size=       0kB time=00:00:00.00 bitrate=N/A speed=   0x    frame=   32 fps= 14 q=0.0 size=       0kB time=00:00:00.00 bitrate=N/A speed=   0x    frame=   40 fps= 14 q=0.0 size=       0kB time=00:00:00.00 bitrate=N/A speed=   0x    frame=   48 fps= 14 q=0.0 size=       0kB time=00:00:00.00 bitrate=N/A speed=   0x    frame=   56 fps= 15 q=0.0 size=       0kB time=00:00:00.00 bitrate=N/A speed=   0x    frame=   64 fps= 15 q=0.0 size=       0kB time=00:00:00.00 bitrate=N/A speed=   0x    frame=   69 fps=8.7 q=0.0 size=       0kB time=00:00:00.00 bitrate=N/A speed=   0x    frame=   70 fps=6.2 q=0.0 size=       0kB time=00:00:00.00 bitrate=N/A speed=   0x    frame=   71 fps=5.8 q=0.0 size=       0kB time=00:00:00.00 bitrate=N/A speed=   0x    frame=   79 fps=6.2 q=0.0 size=       0kB time=00:00:00.00 bitrate=N/A speed=   0x    frame=   84 fps=1.4 q=0.0 size=       0kB time=00:00:00.00 bitrate=N/A speed=   0x    frame=   86 fps=1.5 q=0.0 size=       0kB time=00:00:00.00 bitrate=N/A speed=   0x    frame=   88 fps=1.4 q=26.0 size=       1kB time=-00:00:00.08 bitrate=N/A speed=N/A    frame=   90 fps=1.4 q=30.0 size=       1kB time=00:00:00.00 bitrate=5888.0kbits/s speed=1.52e-05x    frame=   91 fps=1.4 q=42.0 size=       1kB time=00:00:00.04 bitrate= 136.9kbits/s speed=0.000646x    frame=   92 fps=1.4 q=38.0 size=       1kB time=00:00:00.08 bitrate=  70.1kbits/s speed=0.00123x    frame=   93 fps=1.2 q=42.0 size=       1kB time=00:00:00.12 bitrate=  46.7kbits/s speed=0.00165x    frame=   94 fps=1.2 q=42.0 size=       1kB time=00:00:00.16 bitrate=  35.0kbits/s speed=0.00216x    frame=   96 fps=1.2 q=43.0 size=       1kB time=00:00:00.25 bitrate=  23.5kbits/s speed=0.0032x    frame=   98 fps=1.2 q=43.0 size=       1kB time=00:00:00.33 bitrate=  17.6kbits/s speed=0.00422x    frame=   99 fps=1.1 q=43.0 size=       1kB time=00:00:00.37 bitrate=  15.7kbits/s speed=0.0043x    frame=  100 fps=1.1 q=42.0 size=       1kB time=00:00:00.41 bitrate=  14.1kbits/s speed=0.00475x    frame=  101 fps=1.1 q=43.0 size=       1kB time=00:00:00.45 bitrate=  12.8kbits/s speed=0.00509x    frame=  102 fps=1.1 q=42.0 size=       1kB time=00:00:00.50 bitrate=  11.8kbits/s speed=0.0055x    frame=  103 fps=1.1 q=42.0 size=       1kB time=00:00:00.54 bitrate=  10.8kbits/s speed=0.00583x    frame=  104 fps=1.1 q=42.0 size=       1kB time=00:00:00.58 bitrate=  10.1kbits/s speed=0.00614x    frame=  105 fps=1.0 q=42.0 size=       1kB time=00:00:00.62 bitrate=   9.4kbits/s speed=0.00608x    frame=  106 fps=1.0 q=42.0 size=       1kB time=00:00:00.66 bitrate=   8.8kbits/s speed=0.00622x    frame=  107 fps=1.0 q=42.0 size=       1kB time=00:00:00.70 bitrate=   8.3kbits/s speed=0.00652x    frame=  108 fps=1.0 q=42.0 size=       1kB time=00:00:00.75 bitrate=   7.8kbits/s speed=0.00679x    frame=  109 fps=1.0 q=42.0 size=       1kB time=00:00:00.79 bitrate=   7.4kbits/s speed=0.007x    frame=  110 fps=0.9 q=42.0 size=       1kB time=00:00:00.83 bitrate=   7.1kbits/s speed=0.00717x    frame=  111 fps=0.9 q=42.0 size=       1kB time=00:00:00.87 bitrate=   6.7kbits/s speed=0.00707x    frame=  112 fps=0.9 q=42.0 size=       1kB time=00:00:00.91 bitrate=   6.4kbits/s speed=0.00722x    frame=  113 fps=0.9 q=42.0 size=       1kB time=00:00:00.95 bitrate=   6.1kbits/s speed=0.00731x    frame=  114 fps=0.9 q=42.0 size=       1kB time=00:00:01.00 bitrate=   5.9kbits/s speed=0.00752x    frame=  116 fps=0.9 q=42.0 size=       1kB time=00:00:01.08 bitrate=   5.4kbits/s speed=0.00803x    frame=  117 fps=0.8 q=42.0 size=       1kB time=00:00:01.12 bitrate=   5.2kbits/s speed=0.00793x    frame=  118 fps=0.8 q=41.0 size=       1kB time=00:00:01.16 bitrate=   5.0kbits/s speed=0.00813x    frame=  119 fps=0.8 q=41.0 size=       1kB time=00:00:01.20 bitrate=   4.9kbits/s speed=0.00813x    frame=  120 fps=0.8 q=41.0 size=       1kB time=00:00:01.25 bitrate=   4.7kbits/s speed=0.00821x    frame=  121 fps=0.8 q=41.0 size=       1kB time=00:00:01.29 bitrate=   4.6kbits/s speed=0.00835x    frame=  122 fps=0.8 q=41.0 size=       1kB time=00:00:01.33 bitrate=   4.4kbits/s speed=0.00845x    frame=  123 fps=0.8 q=41.0 size=       1kB time=00:00:01.37 bitrate=   4.3kbits/s speed=0.00849x    frame=  124 fps=0.8 q=41.0 size=       1kB time=00:00:01.41 bitrate=   4.2kbits/s speed=0.0086x    frame=  125 fps=0.7 q=41.0 size=       1kB time=00:00:01.45 bitrate=   4.0kbits/s speed=0.00858x    frame=  126 fps=0.7 q=41.0 size=       1kB time=00:00:01.50 bitrate=   3.9kbits/s speed=0.00871x    frame=  127 fps=0.7 q=41.0 size=       1kB time=00:00:01.54 bitrate=   3.8kbits/s speed=0.0088x    frame=  128 fps=0.7 q=41.0 size=       1kB time=00:00:01.58 bitrate=   3.7kbits/s speed=0.00886x    frame=  129 fps=0.7 q=41.0 size=       1kB time=00:00:01.62 bitrate=   3.6kbits/s speed=0.00899x    frame=  130 fps=0.7 q=40.0 size=       1kB time=00:00:01.66 bitrate=   3.5kbits/s speed=0.00905x    frame=  131 fps=0.7 q=40.0 size=       1kB time=00:00:01.70 bitrate=   3.4kbits/s speed=0.00902x    frame=  132 fps=0.7 q=40.0 size=       1kB time=00:00:01.75 bitrate=   3.4kbits/s speed=0.00912x    frame=  133 fps=0.7 q=40.0 size=       1kB time=00:00:01.79 bitrate=   3.3kbits/s speed=0.00921x    frame=  134 fps=0.7 q=40.0 size=       1kB time=00:00:01.83 bitrate=   3.2kbits/s speed=0.00926x    frame=  135 fps=0.7 q=40.0 size=       1kB time=00:00:01.87 bitrate=   3.1kbits/s speed=0.00937x    frame=  136 fps=0.7 q=40.0 size=       1kB time=00:00:01.91 bitrate=   3.1kbits/s speed=0.00941x    frame=  137 fps=0.7 q=40.0 size=       1kB time=00:00:01.95 bitrate=   3.0kbits/s speed=0.00938x    frame=  138 fps=0.6 q=40.0 size=       1kB time=00:00:02.00 bitrate=   2.9kbits/s speed=0.00939x    frame=  139 fps=0.6 q=40.0 size=       1kB time=00:00:02.04 bitrate=   2.9kbits/s speed=0.00944x    frame=  140 fps=0.6 q=40.0 size=       1kB time=00:00:02.08 bitrate=   2.8kbits/s speed=0.00945x    frame=  141 fps=0.6 q=40.0 size=       1kB time=00:00:02.12 bitrate=   2.8kbits/s speed=0.00943x    frame=  142 fps=0.6 q=40.0 size=       1kB time=00:00:02.16 bitrate=   2.7kbits/s speed=0.00948x    frame=  143 fps=0.6 q=40.0 size=       1kB time=00:00:02.20 bitrate=   2.7kbits/s speed=0.00949x    frame=  144 fps=0.6 q=40.0 size=       1kB time=00:00:02.25 bitrate=   2.6kbits/s speed=0.00947x    frame=  145 fps=0.6 q=40.0 size=       1kB time=00:00:02.29 bitrate=   2.6kbits/s speed=0.00953x    frame=  146 fps=0.6 q=40.0 size=       1kB time=00:00:02.33 bitrate=   2.5kbits/s speed=0.00956x    frame=  147 fps=0.6 q=40.0 size=       1kB time=00:00:02.37 bitrate=   2.5kbits/s speed=0.00953x    frame=  148 fps=0.6 q=40.0 size=       1kB time=00:00:02.41 bitrate=   2.4kbits/s speed=0.00961x    frame=  149 fps=0.6 q=40.0 size=       1kB time=00:00:02.45 bitrate=   2.4kbits/s speed=0.00957x    frame=  150 fps=0.6 q=40.0 size=       1kB time=00:00:02.50 bitrate=   2.4kbits/s speed=0.00959x    frame=  151 fps=0.6 q=40.0 size=       1kB time=00:00:02.54 bitrate=   2.3kbits/s speed=0.00964x    frame=  152 fps=0.6 q=39.0 size=       1kB time=00:00:02.58 bitrate=   2.3kbits/s speed=0.0097x    frame=  153 fps=0.6 q=39.0 size=       1kB time=00:00:02.62 bitrate=   2.2kbits/s speed=0.00969x    frame=  154 fps=0.6 q=39.0 size=       1kB time=00:00:02.66 bitrate=   2.2kbits/s speed=0.00961x    frame=  155 fps=0.6 q=39.0 size=       1kB time=00:00:02.70 bitrate=   2.2kbits/s speed=0.00969x    frame=  156 fps=0.6 q=39.0 size=       1kB time=00:00:02.75 bitrate=   2.1kbits/s speed=0.00976x    frame=  157 fps=0.6 q=39.0 size=       1kB time=00:00:02.79 bitrate=   2.1kbits/s speed=0.00986x    frame=  158 fps=0.6 q=39.0 size=       1kB time=00:00:02.83 bitrate=   2.1kbits/s speed=0.00992x    frame=  159 fps=0.6 q=39.0 size=       1kB time=00:00:02.87 bitrate=   2.0kbits/s speed=0.00995x    frame=  160 fps=0.5 q=39.0 size=       1kB time=00:00:02.91 bitrate=   2.0kbits/s speed=0.0098x    frame=  161 fps=0.5 q=39.0 size=       1kB time=00:00:02.95 bitrate=   2.0kbits/s speed=0.00985x    frame=  162 fps=0.5 q=39.0 size=       1kB time=00:00:03.00 bitrate=   2.0kbits/s speed=0.00993x    frame=  163 fps=0.5 q=39.0 size=       1kB time=00:00:03.04 bitrate=   1.9kbits/s speed=0.01x    frame=  164 fps=0.5 q=39.0 size=       1kB time=00:00:03.08 bitrate=   1.9kbits/s speed=0.0101x    frame=  165 fps=0.5 q=39.0 size=       1kB time=00:00:03.12 bitrate=   1.9kbits/s speed=0.0102x    frame=  166 fps=0.5 q=39.0 size=       1kB time=00:00:03.16 bitrate=   1.9kbits/s speed=0.01x    frame=  167 fps=0.5 q=39.0 size=       1kB time=00:00:03.20 bitrate=   1.8kbits/s speed=0.01x    frame=  168 fps=0.5 q=38.0 size=       1kB time=00:00:03.25 bitrate=   1.8kbits/s speed=0.0101x    frame=  169 fps=0.5 q=38.0 size=       1kB time=00:00:03.29 bitrate=   1.8kbits/s speed=0.0102x    frame=  170 fps=0.5 q=38.0 size=       1kB time=00:00:03.33 bitrate=   1.8kbits/s speed=0.0102x    frame=  171 fps=0.5 q=38.0 size=       1kB time=00:00:03.37 bitrate=   1.7kbits/s speed=0.0102x    frame=  172 fps=0.5 q=38.0 size=       1kB time=00:00:03.41 bitrate=   1.7kbits/s speed=0.0102x    frame=  173 fps=0.5 q=38.0 size=       1kB time=00:00:03.45 bitrate=   1.7kbits/s speed=0.0102x    frame=  174 fps=0.5 q=38.0 size=       1kB time=00:00:03.50 bitrate=   1.7kbits/s speed=0.0103x    frame=  175 fps=0.5 q=38.0 size=       1kB time=00:00:03.54 bitrate=   1.7kbits/s speed=0.0103x    frame=  176 fps=0.5 q=38.0 size=       1kB time=00:00:03.58 bitrate=   1.6kbits/s speed=0.0103x    frame=  177 fps=0.5 q=38.0 size=       1kB time=00:00:03.62 bitrate=   1.6kbits/s speed=0.0103x    frame=  178 fps=0.5 q=38.0 size=       1kB time=00:00:03.66 bitrate=   1.6kbits/s speed=0.0103x    frame=  179 fps=0.5 q=38.0 size=       1kB time=00:00:03.70 bitrate=   1.6kbits/s speed=0.0103x    frame=  180 fps=0.5 q=38.0 size=       1kB time=00:00:03.75 bitrate=   1.6kbits/s speed=0.0103x    frame=  181 fps=0.5 q=38.0 size=       1kB time=00:00:03.79 bitrate=   1.6kbits/s speed=0.0103x    frame=  182 fps=0.5 q=38.0 size=       1kB time=00:00:03.83 bitrate=   1.5kbits/s speed=0.0104x    frame=  183 fps=0.5 q=38.0 size=       1kB time=00:00:03.87 bitrate=   1.5kbits/s speed=0.0104x    frame=  184 fps=0.5 q=38.0 size=       1kB time=00:00:03.91 bitrate=   1.5kbits/s speed=0.0103x    frame=  185 fps=0.5 q=38.0 size=       1kB time=00:00:03.95 bitrate=   1.5kbits/s speed=0.0104x    frame=  186 fps=0.5 q=38.0 size=       1kB time=00:00:04.00 bitrate=   1.5kbits/s speed=0.0104x    frame=  187 fps=0.5 q=38.0 size=       1kB time=00:00:04.04 bitrate=   1.5kbits/s speed=0.0104x    frame=  188 fps=0.5 q=38.0 size=       1kB time=00:00:04.08 bitrate=   1.4kbits/s speed=0.0105x    frame=  189 fps=0.5 q=38.0 size=       1kB time=00:00:04.12 bitrate=   1.4kbits/s speed=0.0104x    frame=  190 fps=0.5 q=38.0 size=       1kB time=00:00:04.16 bitrate=   1.4kbits/s speed=0.0105x    frame=  191 fps=0.5 q=38.0 size=       1kB time=00:00:04.20 bitrate=   1.4kbits/s speed=0.0105x    frame=  192 fps=0.5 q=37.0 size=       1kB time=00:00:04.25 bitrate=   1.4kbits/s speed=0.0106x    frame=  193 fps=0.5 q=37.0 size=       1kB time=00:00:04.29 bitrate=   1.4kbits/s speed=0.0105x    frame=  194 fps=0.5 q=37.0 size=       1kB time=00:00:04.33 bitrate=   1.4kbits/s speed=0.0106x    frame=  195 fps=0.5 q=37.0 size=       1kB time=00:00:04.37 bitrate=   1.3kbits/s speed=0.0105x    frame=  196 fps=0.5 q=37.0 size=       1kB time=00:00:04.41 bitrate=   1.3kbits/s speed=0.0106x    frame=  197 fps=0.5 q=37.0 size=       1kB time=00:00:04.45 bitrate=   1.3kbits/s speed=0.0106x    frame=  198 fps=0.5 q=37.0 size=       1kB time=00:00:04.50 bitrate=   1.3kbits/s speed=0.0107x    frame=  199 fps=0.5 q=37.0 size=       1kB time=00:00:04.54 bitrate=   1.3kbits/s speed=0.0107x    frame=  200 fps=0.5 q=37.0 size=    5122kB time=00:00:04.58 bitrate=9153.9kbits/s speed=0.0107x    frame=  201 fps=0.5 q=37.0 size=    5122kB time=00:00:04.62 bitrate=9070.8kbits/s speed=0.0107x    frame=  202 fps=0.5 q=37.0 size=    5122kB time=00:00:04.66 bitrate=8989.1kbits/s speed=0.0107x    frame=  203 fps=0.5 q=37.0 size=    5122kB time=00:00:04.70 bitrate=8910.9kbits/s speed=0.0108x    frame=  204 fps=0.5 q=37.0 size=    5122kB time=00:00:04.75 bitrate=8832.1kbits/s speed=0.0106x    frame=  205 fps=0.5 q=37.0 size=    5122kB time=00:00:04.79 bitrate=8754.7kbits/s speed=0.0106x    frame=  206 fps=0.5 q=37.0 size=    5122kB time=00:00:04.83 bitrate=8680.5kbits/s speed=0.0106x    frame=  207 fps=0.5 q=37.0 size=    5122kB time=00:00:04.87 bitrate=8605.7kbits/s speed=0.0107x    frame=  208 fps=0.5 q=37.0 size=    5122kB time=00:00:04.91 bitrate=8532.2kbits/s speed=0.0108x    frame=  209 fps=0.5 q=37.0 size=    5122kB time=00:00:04.95 bitrate=8461.7kbits/s speed=0.0107x    frame=  210 fps=0.5 q=37.0 size=    5122kB time=00:00:05.00 bitrate=8390.6kbits/s speed=0.0108x    frame=  211 fps=0.4 q=37.0 size=    5122kB time=00:00:05.04 bitrate=8320.7kbits/s speed=0.0107x    frame=  212 fps=0.4 q=37.0 size=    5122kB time=00:00:05.08 bitrate=8253.6kbits/s speed=0.0106x    frame=  213 fps=0.4 q=37.0 size=    5122kB time=00:00:05.12 bitrate=8186.0kbits/s speed=0.0107x    frame=  214 fps=0.4 q=37.0 size=    5122kB time=00:00:05.16 bitrate=8119.5kbits/s speed=0.0107x    frame=  215 fps=0.4 q=37.0 size=    5122kB time=00:00:05.20 bitrate=8055.5kbits/s speed=0.0107x    frame=  216 fps=0.4 q=37.0 size=    5122kB time=00:00:05.25 bitrate=7991.1kbits/s speed=0.0108x    frame=  217 fps=0.4 q=37.0 size=    5122kB time=00:00:05.29 bitrate=7927.7kbits/s speed=0.0107x    frame=  218 fps=0.4 q=37.0 size=    5122kB time=00:00:05.33 bitrate=7866.8kbits/s speed=0.0107x    frame=  219 fps=0.4 q=37.0 size=    5122kB time=00:00:05.37 bitrate=7805.3kbits/s speed=0.0107x    frame=  220 fps=0.4 q=37.0 size=    5122kB time=00:00:05.41 bitrate=7744.8kbits/s speed=0.0107x    frame=  221 fps=0.4 q=37.0 size=    5122kB time=00:00:05.45 bitrate=7686.6kbits/s speed=0.0107x    frame=  222 fps=0.4 q=37.0 size=    5122kB time=00:00:05.50 bitrate=7627.9kbits/s speed=0.0108x    frame=  223 fps=0.4 q=37.0 size=    5122kB time=00:00:05.54 bitrate=7570.2kbits/s speed=0.0108x    frame=  224 fps=0.4 q=37.0 size=    5122kB time=00:00:05.58 bitrate=7514.6kbits/s speed=0.0107x    frame=  225 fps=0.4 q=37.0 size=    5122kB time=00:00:05.62 bitrate=7458.5kbits/s speed=0.0107x    frame=  226 fps=0.4 q=37.0 size=    5122kB time=00:00:05.66 bitrate=7403.2kbits/s speed=0.0108x    frame=  227 fps=0.4 q=37.0 size=    5122kB time=00:00:05.70 bitrate=7350.0kbits/s speed=0.0108x    frame=  228 fps=0.4 q=37.0 size=    5122kB time=00:00:05.75 bitrate=7296.4kbits/s speed=0.0108x    frame=  229 fps=0.4 q=37.0 size=    5122kB time=00:00:05.79 bitrate=7243.5kbits/s speed=0.0108x    frame=  230 fps=0.4 q=37.0 size=    5122kB time=00:00:05.83 bitrate=7192.6kbits/s speed=0.0108x    frame=  231 fps=0.4 q=37.0 size=    5122kB time=00:00:05.87 bitrate=7141.1kbits/s speed=0.0108x    frame=  232 fps=0.4 q=37.0 size=    5122kB time=00:00:05.91 bitrate=7090.5kbits/s speed=0.0108x    frame=  233 fps=0.4 q=37.0 size=    5122kB time=00:00:05.95 bitrate=7041.7kbits/s speed=0.0108x    frame=  234 fps=0.4 q=37.0 size=    5122kB time=00:00:06.00 bitrate=6992.4kbits/s speed=0.0108x    frame=  235 fps=0.4 q=37.0 size=    5122kB time=00:00:06.04 bitrate=6943.8kbits/s speed=0.0108x    frame=  236 fps=0.4 q=37.0 size=    5122kB time=00:00:06.08 bitrate=6897.0kbits/s speed=0.0108x    frame=  237 fps=0.4 q=37.0 size=    5122kB time=00:00:06.12 bitrate=6849.7kbits/s speed=0.0109x    frame=  238 fps=0.4 q=37.0 size=    5122kB time=00:00:06.16 bitrate=6803.1kbits/s speed=0.0108x    frame=  239 fps=0.4 q=37.0 size=    5122kB time=00:00:06.20 bitrate=6758.1kbits/s speed=0.0109x    frame=  240 fps=0.4 q=37.0 size=    5122kB time=00:00:06.25 bitrate=6712.7kbits/s speed=0.0109x    frame=  241 fps=0.4 q=37.0 size=    5122kB time=00:00:06.29 bitrate=6667.9kbits/s speed=0.011x    frame=  242 fps=0.4 q=36.0 size=    5122kB time=00:00:06.33 bitrate=6624.8kbits/s speed=0.011x    frame=  243 fps=0.4 q=36.0 size=    5122kB time=00:00:06.37 bitrate=6581.1kbits/s speed=0.0111x    frame=  245 fps=0.4 q=36.0 size=    5122kB time=00:00:06.45 bitrate=6496.6kbits/s speed=0.0109x    frame=  246 fps=0.4 q=36.0 size=    5122kB time=00:00:06.50 bitrate=6454.6kbits/s speed=0.0109x    frame=  247 fps=0.4 q=36.0 size=    5122kB time=00:00:06.54 bitrate=6413.2kbits/s speed=0.011x    frame=  248 fps=0.4 q=36.0 size=    5122kB time=00:00:06.58 bitrate=6373.2kbits/s speed=0.011x    frame=  249 fps=0.4 q=36.0 size=    5122kB time=00:00:06.62 bitrate=6332.8kbits/s speed=0.011x    frame=  250 fps=0.4 q=36.0 size=    5122kB time=00:00:06.66 bitrate=6292.9kbits/s speed=0.011x    frame=  251 fps=0.4 q=36.0 size=    5122kB time=00:00:06.70 bitrate=6254.5kbits/s speed=0.0109x    frame=  252 fps=0.4 q=36.0 size=    5122kB time=00:00:06.75 bitrate=6215.6kbits/s speed=0.0109x    frame=  253 fps=0.4 q=36.0 size=    5122kB time=00:00:06.79 bitrate=6177.1kbits/s speed=0.011x    frame=  254 fps=0.4 q=36.0 size=    5122kB time=00:00:06.83 bitrate=6140.1kbits/s speed=0.011x    frame=  255 fps=0.4 q=36.0 size=    5122kB time=00:00:06.87 bitrate=6102.6kbits/s speed=0.011x    frame=  256 fps=0.4 q=36.0 size=    5122kB time=00:00:06.91 bitrate=6065.5kbits/s speed=0.011x    frame=  257 fps=0.4 q=36.0 size=    5122kB time=00:00:06.95 bitrate=6029.8kbits/s speed=0.011x    frame=  258 fps=0.4 q=36.0 size=    5122kB time=00:00:07.00 bitrate=5993.6kbits/s speed=0.0109x    frame=  259 fps=0.4 q=36.0 size=    5122kB time=00:00:07.04 bitrate=5957.9kbits/s speed=0.011x    frame=  260 fps=0.4 q=36.0 size=    5122kB time=00:00:07.08 bitrate=5923.4kbits/s speed=0.011x    frame=  261 fps=0.4 q=36.0 size=    5122kB time=00:00:07.12 bitrate=5888.5kbits/s speed=0.011x    frame=  262 fps=0.4 q=36.0 size=    5122kB time=00:00:07.16 bitrate=5854.0kbits/s speed=0.011x    frame=  263 fps=0.4 q=36.0 size=    5122kB time=00:00:07.20 bitrate=5820.7kbits/s speed=0.011x    frame=  264 fps=0.4 q=36.0 size=    5122kB time=00:00:07.25 bitrate=5787.0kbits/s speed=0.0109x    frame=  265 fps=0.4 q=36.0 size=    5122kB time=00:00:07.29 bitrate=5753.6kbits/s speed=0.011x    frame=  266 fps=0.4 q=36.0 size=    5122kB time=00:00:07.33 bitrate=5721.5kbits/s speed=0.011x    frame=  267 fps=0.4 q=36.0 size=    5122kB time=00:00:07.37 bitrate=5688.9kbits/s speed=0.011x    frame=  268 fps=0.4 q=36.0 size=    5122kB time=00:00:07.41 bitrate=5656.7kbits/s speed=0.011x    frame=  269 fps=0.4 q=36.0 size=    5122kB time=00:00:07.45 bitrate=5625.6kbits/s speed=0.011x    frame=  270 fps=0.4 q=36.0 size=    5122kB time=00:00:07.50 bitrate=5594.1kbits/s speed=0.011x    frame=  271 fps=0.4 q=36.0 size=    5122kB time=00:00:07.54 bitrate=5563.0kbits/s speed=0.011x    frame=  272 fps=0.4 q=36.0 size=    5122kB time=00:00:07.58 bitrate=5532.9kbits/s speed=0.011x    frame=  273 fps=0.4 q=36.0 size=    5122kB time=00:00:07.62 bitrate=5502.4kbits/s speed=0.011x    frame=  274 fps=0.4 q=36.0 size=    5122kB time=00:00:07.66 bitrate=5472.3kbits/s speed=0.011x    frame=  276 fps=0.4 q=36.0 size=    5122kB time=00:00:07.75 bitrate=5413.7kbits/s speed=0.011x    frame=  277 fps=0.4 q=36.0 size=    5122kB time=00:00:07.79 bitrate=5384.5kbits/s speed=0.0111x    frame=  278 fps=0.4 q=36.0 size=    5122kB time=00:00:07.83 bitrate=5356.3kbits/s speed=0.0111x    frame=  279 fps=0.4 q=36.0 size=    5122kB time=00:00:07.87 bitrate=5327.7kbits/s speed=0.011x    frame=  280 fps=0.4 q=35.0 size=    5122kB time=00:00:07.91 bitrate=5299.5kbits/s speed=0.0111x    frame=  281 fps=0.4 q=35.0 size=    5122kB time=00:00:07.95 bitrate=5272.2kbits/s speed=0.0111x    frame=  282 fps=0.4 q=35.0 size=    5122kB time=00:00:08.00 bitrate=5244.5kbits/s speed=0.0111x    frame=  283 fps=0.4 q=35.0 size=    5122kB time=00:00:08.04 bitrate=5217.1kbits/s speed=0.0111x    frame=  284 fps=0.4 q=35.0 size=    5122kB time=00:00:08.08 bitrate=5190.7kbits/s speed=0.0111x    frame=  285 fps=0.4 q=35.0 size=    5122kB time=00:00:08.12 bitrate=5163.8kbits/s speed=0.0111x    frame=  286 fps=0.4 q=35.0 size=    5122kB time=00:00:08.16 bitrate=5137.3kbits/s speed=0.0111x    frame=  287 fps=0.4 q=35.0 size=    5122kB time=00:00:08.20 bitrate=5111.6kbits/s speed=0.0111x    frame=  288 fps=0.4 q=35.0 size=    5122kB time=00:00:08.25 bitrate=5085.6kbits/s speed=0.0111x    frame=  289 fps=0.4 q=35.0 size=    5122kB time=00:00:08.29 bitrate=5059.9kbits/s speed=0.0111x    frame=  290 fps=0.4 q=35.0 size=    5122kB time=00:00:08.33 bitrate=5035.0kbits/s speed=0.0111x    frame=  291 fps=0.4 q=35.0 size=    5122kB time=00:00:08.37 bitrate=5009.7kbits/s speed=0.0111x    frame=  292 fps=0.4 q=35.0 size=    5122kB time=00:00:08.41 bitrate=4984.7kbits/s speed=0.011x    frame=  293 fps=0.4 q=35.0 size=    5122kB time=00:00:08.45 bitrate=4960.6kbits/s speed=0.011x    frame=  294 fps=0.4 q=35.0 size=    5122kB time=00:00:08.50 bitrate=4936.0kbits/s speed=0.0111x    frame=  295 fps=0.4 q=35.0 size=    5122kB time=00:00:08.54 bitrate=4911.8kbits/s speed=0.0111x    frame=  296 fps=0.4 q=35.0 size=    5122kB time=00:00:08.58 bitrate=4888.3kbits/s speed=0.0111x    frame=  297 fps=0.4 q=35.0 size=    5122kB time=00:00:08.62 bitrate=4864.5kbits/s speed=0.011x    frame=  298 fps=0.4 q=35.0 size=    5122kB time=00:00:08.66 bitrate=4840.9kbits/s speed=0.0111x    frame=  299 fps=0.4 q=35.0 size=    5122kB time=00:00:08.70 bitrate=4818.2kbits/s speed=0.0111x    frame=  300 fps=0.4 q=35.0 size=    5122kB time=00:00:08.75 bitrate=4795.0kbits/s speed=0.011x    frame=  301 fps=0.4 q=35.0 size=    5122kB time=00:00:08.79 bitrate=4772.1kbits/s speed=0.0111x    frame=  302 fps=0.4 q=35.0 size=    5122kB time=00:00:08.83 bitrate=4750.0kbits/s speed=0.0111x    frame=  303 fps=0.4 q=35.0 size=    5122kB time=00:00:08.87 bitrate=4727.5kbits/s speed=0.0111x    frame=  304 fps=0.4 q=35.0 size=    5122kB time=00:00:08.91 bitrate=4705.2kbits/s speed=0.0111x    frame=  305 fps=0.4 q=35.0 size=    5122kB time=00:00:08.95 bitrate=4683.7kbits/s speed=0.0111x    frame=  306 fps=0.4 q=35.0 size=    5122kB time=00:00:09.00 bitrate=4661.9kbits/s speed=0.0111x    frame=  307 fps=0.4 q=35.0 size=    5122kB time=00:00:09.04 bitrate=4640.2kbits/s speed=0.0111x    frame=  308 fps=0.4 q=35.0 size=    5122kB time=00:00:09.08 bitrate=4619.3kbits/s speed=0.0111x    frame=  309 fps=0.4 q=35.0 size=    5122kB time=00:00:09.12 bitrate=4598.0kbits/s speed=0.0112x    frame=  310 fps=0.4 q=35.0 size=    5122kB time=00:00:09.16 bitrate=4576.9kbits/s speed=0.0111x    frame=  311 fps=0.4 q=35.0 size=    5122kB time=00:00:09.20 bitrate=4556.6kbits/s speed=0.0111x    frame=  312 fps=0.4 q=35.0 size=    5122kB time=00:00:09.25 bitrate=4535.9kbits/s speed=0.0112x    frame=  314 fps=0.4 q=35.0 size=    5122kB time=00:00:09.33 bitrate=4495.5kbits/s speed=0.0111x    frame=  315 fps=0.4 q=35.0 size=    5122kB time=00:00:09.37 bitrate=4475.4kbits/s speed=0.0112x    frame=  316 fps=0.4 q=35.0 size=    5122kB time=00:00:09.41 bitrate=4455.4kbits/s speed=0.0112x    frame=  319 fps=0.4 q=35.0 size=    5122kB time=00:00:09.54 bitrate=4397.1kbits/s speed=0.0113x    frame=  320 fps=0.4 q=35.0 size=    9773kB time=00:00:09.58 bitrate=8353.9kbits/s speed=0.0113x    frame=  321 fps=0.4 q=35.0 size=    9773kB time=00:00:09.62 bitrate=8317.5kbits/s speed=0.0112x    frame=  322 fps=0.4 q=35.0 size=    9773kB time=00:00:09.66 bitrate=8281.3kbits/s speed=0.0112x    frame=  323 fps=0.4 q=35.0 size=    9773kB time=00:00:09.70 bitrate=8246.3kbits/s speed=0.0113x    frame=  324 fps=0.4 q=35.0 size=    9773kB time=00:00:09.75 bitrate=8210.8kbits/s speed=0.0113x    frame=  325 fps=0.4 q=35.0 size=    9773kB time=00:00:09.79 bitrate=8175.6kbits/s speed=0.0113x    frame=  326 fps=0.4 q=35.0 size=    9773kB time=00:00:09.83 bitrate=8141.5kbits/s speed=0.0113x    frame=  327 fps=0.4 q=35.0 size=    9773kB time=00:00:09.87 bitrate=8106.9kbits/s speed=0.0113x    frame=  328 fps=0.4 q=35.0 size=    9773kB time=00:00:09.91 bitrate=8072.6kbits/s speed=0.0112x    frame=  329 fps=0.4 q=35.0 size=    9773kB time=00:00:09.95 bitrate=8039.3kbits/s speed=0.0113x    frame=  330 fps=0.4 q=35.0 size=    9773kB time=00:00:10.00 bitrate=8005.6kbits/s speed=0.0113x    frame=  331 fps=0.4 q=35.0 size=    9773kB time=00:00:10.04 bitrate=7972.1kbits/s speed=0.0113x    frame=  332 fps=0.4 q=35.0 size=    9773kB time=00:00:10.08 bitrate=7939.7kbits/s speed=0.0114x    frame=  333 fps=0.4 q=32.0 size=    9773kB time=00:00:10.12 bitrate=7906.8kbits/s speed=0.0114x    frame=  334 fps=0.4 q=35.0 size=    9773kB time=00:00:10.16 bitrate=7874.1kbits/s speed=0.0113x    frame=  335 fps=0.4 q=35.0 size=    9773kB time=00:00:10.20 bitrate=7842.5kbits/s speed=0.0113x    frame=  336 fps=0.4 q=35.0 size=    9773kB time=00:00:10.25 bitrate=7810.3kbits/s speed=0.0113x    frame=  337 fps=0.4 q=35.0 size=    9773kB time=00:00:10.29 bitrate=7778.5kbits/s speed=0.0114x    frame=  338 fps=0.4 q=35.0 size=   10400kB time=00:00:10.33 bitrate=8244.4kbits/s speed=0.0114x    frame=  344 fps=0.4 q=34.0 size=   10400kB time=00:00:10.58 bitrate=8049.6kbits/s speed=0.0116x    frame=  346 fps=0.4 q=34.0 size=   10400kB time=00:00:10.66 bitrate=7986.3kbits/s speed=0.0117x    frame=  347 fps=0.4 q=34.0 size=   10400kB time=00:00:10.70 bitrate=7955.7kbits/s speed=0.0117x    frame=  348 fps=0.4 q=32.0 size=   10400kB time=00:00:10.75 bitrate=7924.6kbits/s speed=0.0117x    frame=  350 fps=0.4 q=34.0 size=   10400kB time=00:00:10.83 bitrate=7863.9kbits/s speed=0.0118x    frame=  351 fps=0.4 q=34.0 size=   10400kB time=00:00:10.87 bitrate=7833.5kbits/s speed=0.0118x    frame=  353 fps=0.4 q=34.0 size=   10400kB time=00:00:10.95 bitrate=7774.2kbits/s speed=0.0119x    frame=  355 fps=0.4 q=34.0 size=   10400kB time=00:00:11.04 bitrate=7715.1kbits/s speed=0.0119x    frame=  357 fps=0.4 q=34.0 size=   10400kB time=00:00:11.12 bitrate=7657.5kbits/s speed=0.0119x    frame=  358 fps=0.4 q=34.0 size=   10400kB time=00:00:11.16 bitrate=7628.7kbits/s speed=0.0119x    frame=  359 fps=0.4 q=34.0 size=   10400kB time=00:00:11.20 bitrate=7600.8kbits/s speed=0.012x    frame=  360 fps=0.4 q=34.0 size=   10400kB time=00:00:11.25 bitrate=7572.4kbits/s speed=0.012x    frame=  361 fps=0.4 q=34.0 size=   10400kB time=00:00:11.29 bitrate=7544.3kbits/s speed=0.0119x    frame=  362 fps=0.4 q=34.0 size=   10400kB time=00:00:11.33 bitrate=7517.0kbits/s speed=0.012x    frame=  363 fps=0.4 q=34.0 size=   10400kB time=00:00:11.37 bitrate=7489.2kbits/s speed=0.012x    frame=  365 fps=0.4 q=34.0 size=   10400kB time=00:00:11.45 bitrate=7435.0kbits/s speed=0.012x    frame=  366 fps=0.4 q=34.0 size=   10400kB time=00:00:11.50 bitrate=7407.8kbits/s speed=0.012x    frame=  367 fps=0.4 q=34.0 size=   10400kB time=00:00:11.54 bitrate=7380.9kbits/s speed=0.0121x    frame=  368 fps=0.4 q=34.0 size=   10400kB time=00:00:11.58 bitrate=7354.7kbits/s speed=0.0121x    frame=  369 fps=0.4 q=34.0 size=   10400kB time=00:00:11.62 bitrate=7328.2kbits/s speed=0.012x    frame=  370 fps=0.4 q=34.0 size=   10400kB time=00:00:11.66 bitrate=7301.8kbits/s speed=0.0121x    frame=  371 fps=0.4 q=34.0 size=   10400kB time=00:00:11.70 bitrate=7276.2kbits/s speed=0.0121x    frame=  372 fps=0.4 q=34.0 size=   10400kB time=00:00:11.75 bitrate=7250.2kbits/s speed=0.0121x    frame=  373 fps=0.4 q=34.0 size=   10400kB time=00:00:11.79 bitrate=7224.4kbits/s speed=0.0121x    frame=  374 fps=0.4 q=34.0 size=   10400kB time=00:00:11.83 bitrate=7199.4kbits/s speed=0.0121x    frame=  376 fps=0.4 q=34.0 size=   10400kB time=00:00:11.91 bitrate=7148.6kbits/s speed=0.0121x    frame=  377 fps=0.4 q=34.0 size=   10400kB time=00:00:11.95 bitrate=7124.1kbits/s speed=0.0122x    frame=  378 fps=0.4 q=34.0 size=   10400kB time=00:00:12.00 bitrate=7099.2kbits/s speed=0.0122x    frame=  380 fps=0.4 q=34.0 size=   10400kB time=00:00:12.08 bitrate=7050.4kbits/s speed=0.0122x    frame=  381 fps=0.4 q=33.0 size=   10400kB time=00:00:12.12 bitrate=7026.0kbits/s speed=0.0122x    frame=  382 fps=0.4 q=33.0 size=   10400kB time=00:00:12.16 bitrate=7001.8kbits/s speed=0.0122x    frame=  385 fps=0.4 q=33.0 size=   10400kB time=00:00:12.29 bitrate=6930.6kbits/s speed=0.0123x    frame=  386 fps=0.4 q=33.0 size=   10400kB time=00:00:12.33 bitrate=6907.5kbits/s speed=0.0123x    frame=  387 fps=0.4 q=33.0 size=   10400kB time=00:00:12.37 bitrate=6884.1kbits/s speed=0.0123x    frame=  388 fps=0.4 q=33.0 size=   10400kB time=00:00:12.41 bitrate=6860.8kbits/s speed=0.0123x    frame=  389 fps=0.4 q=33.0 size=   10400kB time=00:00:12.45 bitrate=6838.2kbits/s speed=0.0123x    frame=  390 fps=0.4 q=33.0 size=   10400kB time=00:00:12.50 bitrate=6815.2kbits/s speed=0.0124x    frame=  394 fps=0.4 q=33.0 size=   10400kB time=00:00:12.66 bitrate=6725.4kbits/s speed=0.0124x    frame=  395 fps=0.4 q=33.0 size=   10400kB time=00:00:12.70 bitrate=6703.7kbits/s speed=0.0124x    frame=  396 fps=0.4 q=33.0 size=   10400kB time=00:00:12.75 bitrate=6681.6kbits/s speed=0.0124x    frame=  400 fps=0.4 q=32.0 size=   10400kB time=00:00:12.91 bitrate=6595.2kbits/s speed=0.0125x    frame=  401 fps=0.4 q=33.0 size=   10400kB time=00:00:12.95 bitrate=6574.4kbits/s speed=0.0125x    frame=  402 fps=0.4 q=33.0 size=   10400kB time=00:00:13.00 bitrate=6553.1kbits/s speed=0.0125x    frame=  406 fps=0.4 q=32.0 size=   10400kB time=00:00:13.16 bitrate=6470.0kbits/s speed=0.0125x    frame=  407 fps=0.4 q=32.0 size=   10400kB time=00:00:13.20 bitrate=6450.0kbits/s speed=0.0126x    frame=  408 fps=0.4 q=32.0 size=   10400kB time=00:00:13.25 bitrate=6429.5kbits/s speed=0.0126x    frame=  411 fps=0.4 q=32.0 size=   10400kB time=00:00:13.37 bitrate=6369.4kbits/s speed=0.0127x    frame=  412 fps=0.4 q=32.0 size=   10400kB time=00:00:13.41 bitrate=6349.5kbits/s speed=0.0127x    frame=  413 fps=0.4 q=32.0 size=   10400kB time=00:00:13.45 bitrate=6330.1kbits/s speed=0.0127x    frame=  416 fps=0.4 q=32.0 size=   10400kB time=00:00:13.58 bitrate=6271.9kbits/s speed=0.0127x    frame=  418 fps=0.4 q=32.0 size=   10400kB time=00:00:13.66 bitrate=6233.3kbits/s speed=0.0128x    frame=  421 fps=0.4 q=32.0 size=   10400kB time=00:00:13.79 bitrate=6176.9kbits/s speed=0.0128x    frame=  422 fps=0.4 q=32.0 size=   10400kB time=00:00:13.83 bitrate=6158.6kbits/s speed=0.0128x    frame=  423 fps=0.4 q=32.0 size=   10400kB time=00:00:13.87 bitrate=6139.9kbits/s speed=0.0129x    frame=  426 fps=0.4 q=31.0 size=   10400kB time=00:00:14.00 bitrate=6085.1kbits/s speed=0.0129x    frame=  427 fps=0.4 q=32.0 size=   10400kB time=00:00:14.04 bitrate=6066.9kbits/s speed=0.0129x    frame=  428 fps=0.4 q=32.0 size=   10400kB time=00:00:14.08 bitrate=6049.2kbits/s speed=0.0129x    frame=  432 fps=0.4 q=31.0 size=   10400kB time=00:00:14.25 bitrate=5978.3kbits/s speed=0.013x    frame=  433 fps=0.4 q=31.0 size=   10400kB time=00:00:14.29 bitrate=5960.8kbits/s speed=0.013x    frame=  434 fps=0.4 q=31.0 size=   10400kB time=00:00:14.33 bitrate=5943.7kbits/s speed=0.013x    frame=  438 fps=0.4 q=31.0 size=   10400kB time=00:00:14.50 bitrate=5875.3kbits/s speed=0.013x    frame=  440 fps=0.4 q=31.0 size=   10400kB time=00:00:14.58 bitrate=5841.8kbits/s speed=0.0131x    frame=  444 fps=0.4 q=31.0 size=   10400kB time=00:00:14.75 bitrate=5775.7kbits/s speed=0.0131x    frame=  445 fps=0.4 q=31.0 size=   10400kB time=00:00:14.79 bitrate=5759.3kbits/s speed=0.0132x    frame=  447 fps=0.4 q=31.0 size=   10400kB time=00:00:14.87 bitrate=5727.2kbits/s speed=0.0132x    frame=  448 fps=0.4 q=31.0 size=   10400kB time=00:00:14.91 bitrate=5711.0kbits/s speed=0.0131x    frame=  449 fps=0.4 q=30.0 size=   10400kB time=00:00:14.95 bitrate=5695.4kbits/s speed=0.0132x    frame=  451 fps=0.4 q=30.0 size=   10400kB time=00:00:15.04 bitrate=5663.6kbits/s speed=0.0132x    frame=  452 fps=0.4 q=30.0 size=   10400kB time=00:00:15.08 bitrate=5648.2kbits/s speed=0.0132x    frame=  453 fps=0.4 q=30.0 size=   10400kB time=00:00:15.12 bitrate=5632.5kbits/s speed=0.0132x    frame=  454 fps=0.4 q=30.0 size=   10400kB time=00:00:15.16 bitrate=5616.9kbits/s speed=0.0132x    frame=  455 fps=0.4 q=30.0 size=   10400kB time=00:00:15.20 bitrate=5601.8kbits/s speed=0.0132x    frame=  456 fps=0.4 q=30.0 size=   10400kB time=00:00:15.25 bitrate=5586.3kbits/s speed=0.0132x    frame=  457 fps=0.4 q=30.0 size=   10400kB time=00:00:15.29 bitrate=5571.0kbits/s speed=0.0132x    frame=  458 fps=0.4 q=30.0 size=   13916kB time=00:00:15.33 bitrate=7434.2kbits/s speed=0.0132x    frame=  459 fps=0.4 q=30.0 size=   13916kB time=00:00:15.37 bitrate=7413.9kbits/s speed=0.0132x    frame=  460 fps=0.4 q=30.0 size=   13916kB time=00:00:15.41 bitrate=7393.7kbits/s speed=0.0132x    frame=  461 fps=0.4 q=30.0 size=   13916kB time=00:00:15.45 bitrate=7374.1kbits/s speed=0.0132x    frame=  463 fps=0.4 q=30.0 size=   13916kB time=00:00:15.54 bitrate=7334.3kbits/s speed=0.0132x    frame=  464 fps=0.4 q=30.0 size=   13916kB time=00:00:15.58 bitrate=7315.0kbits/s speed=0.0132x    frame=  465 fps=0.4 q=30.0 size=   13916kB time=00:00:15.62 bitrate=7295.3kbits/s speed=0.0132x    frame=  467 fps=0.4 q=30.0 size=   13916kB time=00:00:15.70 bitrate=7256.8kbits/s speed=0.0133x    frame=  468 fps=0.4 q=30.0 size=   13916kB time=00:00:15.75 bitrate=7237.4kbits/s speed=0.0133x    frame=  469 fps=0.4 q=30.0 size=   13916kB time=00:00:15.79 bitrate=7218.2kbits/s speed=0.0133x    frame=  470 fps=0.4 q=30.0 size=   13916kB time=00:00:15.83 bitrate=7199.5kbits/s speed=0.0132x    frame=  471 fps=0.4 q=30.0 size=   13916kB time=00:00:15.87 bitrate=7180.4kbits/s speed=0.0132x    frame=  472 fps=0.4 q=30.0 size=   13916kB time=00:00:15.91 bitrate=7161.5kbits/s speed=0.0133x    frame=  476 fps=0.4 q=30.0 size=   13916kB time=00:00:16.08 bitrate=7087.6kbits/s speed=0.0132x    frame=  477 fps=0.4 q=30.0 size=   13916kB time=00:00:16.12 bitrate=7069.1kbits/s speed=0.0133x    frame=  478 fps=0.4 q=30.0 size=   13916kB time=00:00:16.16 bitrate=7050.7kbits/s speed=0.0133x    frame=  479 fps=0.4 q=30.0 size=   13916kB time=00:00:16.20 bitrate=7032.9kbits/s speed=0.0133x    frame=  480 fps=0.4 q=30.0 size=   13916kB time=00:00:16.25 bitrate=7014.7kbits/s speed=0.0133x    frame=  481 fps=0.4 q=30.0 size=   13916kB time=00:00:16.29 bitrate=6996.6kbits/s speed=0.0133x    frame=  482 fps=0.4 q=30.0 size=   13916kB time=00:00:16.33 bitrate=6979.1kbits/s speed=0.0133x    frame=  483 fps=0.4 q=30.0 size=   13916kB time=00:00:16.37 bitrate=6961.2kbits/s speed=0.0132x    frame=  484 fps=0.4 q=30.0 size=   13916kB time=00:00:16.41 bitrate=6943.4kbits/s speed=0.0133x    frame=  485 fps=0.4 q=30.0 size=   13916kB time=00:00:16.45 bitrate=6926.1kbits/s speed=0.0133x    frame=  487 fps=0.4 q=30.0 size=   13916kB time=00:00:16.54 bitrate=6890.9kbits/s speed=0.0133x    frame=  488 fps=0.4 q=30.0 size=   13916kB time=00:00:16.58 bitrate=6873.9kbits/s speed=0.0133x    frame=  489 fps=0.4 q=30.0 size=   13916kB time=00:00:16.62 bitrate=6856.5kbits/s speed=0.0133x    frame=  490 fps=0.4 q=30.0 size=   13916kB time=00:00:16.66 bitrate=6839.2kbits/s speed=0.0132x    frame=  491 fps=0.4 q=30.0 size=   13916kB time=00:00:16.70 bitrate=6822.5kbits/s speed=0.0132x    frame=  492 fps=0.4 q=30.0 size=   13916kB time=00:00:16.75 bitrate=6805.3kbits/s speed=0.0133x    frame=  493 fps=0.4 q=30.0 size=   13916kB time=00:00:16.79 bitrate=6788.3kbits/s speed=0.0133x    frame=  494 fps=0.4 q=30.0 size=   13916kB time=00:00:16.83 bitrate=6771.8kbits/s speed=0.0133x    frame=  495 fps=0.4 q=30.0 size=   13916kB time=00:00:16.87 bitrate=6754.9kbits/s speed=0.0133x    frame=  496 fps=0.4 q=30.0 size=   13916kB time=00:00:16.91 bitrate=6738.2kbits/s speed=0.0133x    frame=  497 fps=0.4 q=30.0 size=   13916kB time=00:00:16.95 bitrate=6721.9kbits/s speed=0.0132x    frame=  498 fps=0.4 q=30.0 size=   13916kB time=00:00:17.00 bitrate=6705.3kbits/s speed=0.0133x    frame=  499 fps=0.4 q=30.0 size=   13916kB time=00:00:17.04 bitrate=6688.7kbits/s speed=0.0133x    frame=  500 fps=0.4 q=30.0 size=   13916kB time=00:00:17.08 bitrate=6672.7kbits/s speed=0.0132x    frame=  500 fps=0.3 q=-1.0 Lsize=   19621kB time=00:00:20.70 bitrate=7761.6kbits/s speed=0.0138x    
video:19616kB audio:0kB subtitle:0kB other streams:0kB global headers:0kB muxing overhead: 0.024075%
bench: utime=5679.296s
bench: maxrss=4188288kB
[libx264 @ 0x39cb1c0] frame I:3     Avg QP:24.95  size:210204
[libx264 @ 0x39cb1c0] frame P:267   Avg QP:32.98  size: 52159
[libx264 @ 0x39cb1c0] frame B:230   Avg QP:32.63  size: 24040
[libx264 @ 0x39cb1c0] consecutive B-frames: 34.8% 13.6% 12.0% 16.0% 14.0%  9.6%  0.0%  0.0%  0.0%  0.0%  0.0%  0.0%  0.0%  0.0%  0.0%  0.0%  0.0%
[libx264 @ 0x39cb1c0] mb I  I16..4: 16.0% 73.8% 10.1%
[libx264 @ 0x39cb1c0] mb P  I16..4: 15.4% 12.9%  2.9%  P16..4: 29.3% 15.9%  2.1%  0.1%  0.0%    skip:21.4%
[libx264 @ 0x39cb1c0] mb B  I16..4:  1.2%  1.8%  0.1%  B16..8: 28.6%  6.4%  0.7%  direct: 0.8%  skip:60.5%  L0:41.4% L1:55.9% BI: 2.6%
[libx264 @ 0x39cb1c0] final ratefactor: 27.93
[libx264 @ 0x39cb1c0] 8x8 transform intra:43.7% inter:87.6%
[libx264 @ 0x39cb1c0] direct mvs  spatial:98.7% temporal:1.3%
[libx264 @ 0x39cb1c0] coded y,uvDC,uvAC intra: 14.6% 17.4% 1.2% inter: 4.0% 3.7% 0.0%
[libx264 @ 0x39cb1c0] i16 v,h,dc,p:  7% 15%  3% 75%
[libx264 @ 0x39cb1c0] i8 v,h,dc,ddl,ddr,vr,hd,vl,hu: 13%  8% 29%  5%  8%  7%  9%  8% 13%
[libx264 @ 0x39cb1c0] i4 v,h,dc,ddl,ddr,vr,hd,vl,hu: 16%  7% 67%  1%  2%  2%  2%  1%  2%
[libx264 @ 0x39cb1c0] i8c dc,h,v,p: 31% 38% 11% 19%
[libx264 @ 0x39cb1c0] Weighted P-Frames: Y:3.0% UV:2.6%
[libx264 @ 0x39cb1c0] ref P L0: 56.8% 20.2% 10.5%  3.4%  2.1%  1.6%  1.3%  0.8%  0.7%  0.6%  0.5%  0.4%  0.4%  0.3%  0.3%  0.2%
[libx264 @ 0x39cb1c0] ref B L0: 90.3%  4.7%  1.9%  0.8%  0.6%  0.4%  0.3%  0.2%  0.2%  0.1%  0.1%  0.1%  0.1%  0.1%  0.0%
[libx264 @ 0x39cb1c0] ref B L1: 98.7%  1.3%
[libx264 @ 0x39cb1c0] kb/s:7713.16
